<?xml version="1.0" standalone="no"?>
<svg xmlns="http://www.w3.org/2000/svg" viewBox="0 0 97 72" width="97" height="72"><g fill="#fea701" color="#fea701" transform="translate(26.36 0) scale(1) "><svg width="44.0" height="44.0" x="0.0" y="0.0" viewBox="0 0 44 44"><path fill="currentColor" fill-rule="nonzero" d="M43.01 35.34c.15.1.24.26.23.43v5.59c0 .2-.12.38-.3.47-1.74.82-3.57 1.23-5.4 1.23-1.82 0-3.64-.4-5.37-1.21-.02 0-.03 0-.04-.01-3.19-1.51-6.72-1.51-9.92 0-3.47 1.63-7.3 1.64-10.78.01 0 0-.01-.01-.02-.01-3.19-1.51-6.72-1.51-9.92 0-.16.08-.35.06-.5-.03a.524.524 0 0 1-.24-.44v-5.59c0-.2.12-.38.3-.47 3.48-1.63 7.31-1.64 10.79-.01 0 0 .01.01.02.01 3.19 1.5 6.72 1.51 9.92 0 3.47-1.63 7.3-1.63 10.77-.01.02 0 .03 0 .04.01 3.19 1.51 6.72 1.51 9.92 0 .16-.08.35-.06.5.03zm0-33.53c.15.1.24.26.23.44v5.58c0 .2-.12.38-.3.47-1.74.82-3.57 1.23-5.4 1.23-1.82 0-3.64-.4-5.37-1.21-.02-.01-.03-.01-.04-.02-3.19-1.5-6.72-1.5-9.92 0-3.47 1.63-7.3 1.64-10.78.01 0 0-.01-.01-.02-.01-3.19-1.5-6.72-1.51-9.92 0-.16.08-.35.06-.5-.03a.524.524 0 0 1-.24-.44V2.24c0-.2.12-.38.3-.47C4.53.14 8.36.13 11.84 1.76c0 0 .01.01.02.01 3.19 1.5 6.72 1.5 9.92 0 3.47-1.63 7.3-1.63 10.77-.01.02.01.03.01.04.02 3.19 1.51 6.72 1.5 9.92 0 .16-.08.35-.07.5.03zm0 11.18c.15.1.24.26.23.44v5.59c0 .2-.12.38-.3.47-1.74.82-3.57 1.23-5.4 1.23-1.82 0-3.64-.4-5.37-1.21-.02-.01-.03-.01-.04-.02-3.19-1.51-6.72-1.51-9.92 0-3.47 1.63-7.3 1.64-10.78.01 0 0-.01-.01-.02-.01-3.19-1.5-6.72-1.5-9.92 0-.16.08-.35.06-.5-.03a.524.524 0 0 1-.24-.44v-5.59c0-.2.12-.38.3-.47 3.48-1.63 7.31-1.64 10.79-.01 0 0 .01.01.02.01 3.19 1.5 6.72 1.5 9.92 0 3.47-1.64 7.3-1.64 10.77-.02.02.01.03.01.04.02 3.19 1.51 6.72 1.5 9.92 0 .16-.08.35-.07.5.03zm0 11.18c.15.09.24.26.23.43v5.6c0 .2-.12.38-.3.47-1.74.82-3.57 1.23-5.4 1.23-1.82 0-3.64-.4-5.37-1.21-.02-.01-.03-.01-.04-.02-3.19-1.5-6.72-1.51-9.92 0-3.47 1.63-7.3 1.64-10.78.01 0 0-.01-.01-.02-.01-3.2-1.51-6.72-1.51-9.92 0-.16.08-.35.06-.5-.03a.524.524 0 0 1-.24-.44v-5.59c0-.2.12-.38.3-.47 3.48-1.63 7.31-1.64 10.79-.01 0 0 .01.01.02.01 3.19 1.5 6.72 1.51 9.92 0 3.47-1.63 7.3-1.63 10.77-.01.02 0 .03 0 .04.01 3.19 1.5 6.72 1.51 9.92 0 .16-.08.35-.07.5.03z"></path></svg></g><path fill="#fe4e01" fill-rule="nonzero" d="M2.66 19.44L0 19.44L0 0L2.66 0L2.66 19.44ZM8.81 19.63L8.81 19.63Q7.06 19.63 6.19 18.35Q5.33 17.06 5.33 13.99L5.33 13.99L5.33 11.30Q5.33 9.72 5.59 8.36Q5.86 7.01 6.59 6.19Q7.32 5.38 8.74 5.38L8.74 5.38Q9.43 5.38 10.01 5.69Q10.58 6.00 11.04 6.46L11.04 6.46L11.04 0L13.61 0L13.61 19.44L11.04 19.44L11.04 18.55Q10.58 19.03 10.04 19.33Q9.50 19.63 8.81 19.63ZM9.46 17.62L9.46 17.62Q9.82 17.62 10.22 17.48Q10.63 17.35 11.04 17.09L11.04 17.09L11.04 7.99Q10.70 7.75 10.30 7.57Q9.89 7.39 9.41 7.39L9.41 7.39Q8.52 7.39 8.21 8.24Q7.90 9.10 7.90 10.30L7.90 10.30L7.90 14.21Q7.90 15.17 8.00 15.95Q8.11 16.73 8.45 17.17Q8.78 17.62 9.46 17.62ZM18.94 19.44L16.37 19.44L16.37 5.57L18.94 5.57L18.94 19.44ZM18.94 3.50L16.37 3.50L16.37 0.82L18.94 0.82L18.94 3.50ZM25.51 19.63L25.51 19.63Q23.98 19.63 23.09 19.01Q22.20 18.38 21.83 17.23Q21.46 16.08 21.46 14.52L21.46 14.52L21.46 10.49Q21.46 8.93 21.83 7.78Q22.20 6.62 23.09 6.00Q23.98 5.38 25.51 5.38L25.51 5.38Q27.05 5.38 27.92 6.00Q28.80 6.62 29.17 7.78Q29.54 8.93 29.54 10.49L29.54 10.49L29.54 14.52Q29.54 16.08 29.17 17.23Q28.80 18.38 27.92 19.01Q27.05 19.63 25.51 19.63ZM25.51 17.74L25.51 17.74Q26.26 17.74 26.56 17.30Q26.86 16.87 26.92 16.16Q26.98 15.46 26.98 14.69L26.98 14.69L26.98 10.34Q26.98 9.55 26.92 8.86Q26.86 8.16 26.56 7.72Q26.26 7.27 25.51 7.27L25.51 7.27Q24.77 7.27 24.46 7.72Q24.14 8.16 24.08 8.86Q24.02 9.55 24.02 10.34L24.02 10.34L24.02 14.69Q24.02 15.46 24.08 16.16Q24.14 16.87 24.46 17.30Q24.77 17.74 25.51 17.74ZM34.27 19.44L31.90 19.44L31.90 5.57L34.27 5.57L34.27 6.89Q34.97 6.10 35.81 5.71Q36.65 5.33 37.54 5.33L37.54 5.33Q38.30 5.33 38.92 5.71Q39.53 6.10 39.79 7.08L39.79 7.08Q40.54 6.17 41.41 5.75Q42.29 5.33 43.25 5.33L43.25 5.33Q43.92 5.33 44.47 5.65Q45.02 5.98 45.36 6.68Q45.70 7.39 45.70 8.54L45.70 8.54L45.70 19.44L43.34 19.44L43.34 8.71Q43.34 7.70 43.02 7.36Q42.70 7.01 42.14 7.01L42.14 7.01Q41.62 7.01 41.04 7.31Q40.46 7.61 39.98 8.14L39.98 8.14Q39.98 8.23 39.98 8.33Q39.98 8.42 39.98 8.54L39.98 8.54L39.98 19.44L37.63 19.44L37.63 8.71Q37.63 7.70 37.31 7.36Q36.98 7.01 36.43 7.01L36.43 7.01Q35.90 7.01 35.34 7.31Q34.78 7.61 34.27 8.14L34.27 8.14L34.27 19.44ZM50.95 19.44L48.38 19.44L48.38 5.57L50.95 5.57L50.95 19.44ZM50.95 3.50L48.38 3.50L48.38 0.82L50.95 0.82L50.95 3.50ZM60.10 19.44L53.18 19.44L53.18 17.71L57.43 7.49L53.62 7.49L53.62 5.57L60.19 5.57L60.19 6.96L55.92 17.50L60.10 17.50L60.10 19.44ZM64.54 19.63L64.54 19.63Q63.72 19.63 63.10 19.16Q62.47 18.70 62.11 17.96Q61.75 17.23 61.75 16.42L61.75 16.42Q61.75 15.12 62.18 14.23Q62.62 13.34 63.37 12.73Q64.13 12.12 65.12 11.66Q66.12 11.21 67.22 10.78L67.22 10.78L67.22 9.79Q67.22 8.95 67.13 8.40Q67.03 7.85 66.73 7.57Q66.43 7.30 65.83 7.30L65.83 7.30Q65.30 7.30 64.98 7.54Q64.66 7.78 64.51 8.22Q64.37 8.66 64.37 9.26L64.37 9.26L64.37 9.96L61.82 9.86Q61.87 7.56 62.88 6.47Q63.89 5.38 66 5.38L66 5.38Q68.06 5.38 68.93 6.50Q69.79 7.63 69.79 9.77L69.79 9.77L69.79 16.10Q69.79 16.75 69.83 17.35Q69.86 17.95 69.92 18.47Q69.98 18.98 70.03 19.44L70.03 19.44L67.68 19.44Q67.61 19.06 67.50 18.47Q67.39 17.88 67.34 17.40L67.34 17.40Q67.10 18.22 66.42 18.92Q65.74 19.63 64.54 19.63ZM65.54 17.42L65.54 17.42Q65.93 17.42 66.26 17.21Q66.60 16.99 66.86 16.72Q67.13 16.44 67.22 16.27L67.22 16.27L67.22 12.34Q66.62 12.67 66.10 13.01Q65.57 13.34 65.17 13.72Q64.78 14.09 64.55 14.56Q64.32 15.02 64.32 15.62L64.32 15.62Q64.32 16.46 64.63 16.94Q64.94 17.42 65.54 17.42ZM74.90 19.44L72.34 19.44L72.34 5.57L74.90 5.57L74.90 7.54Q75.67 6.26 76.44 5.83Q77.21 5.40 77.98 5.40L77.98 5.40Q78.07 5.40 78.16 5.40Q78.24 5.40 78.38 5.42L78.38 5.42L78.38 8.26Q78.10 8.14 77.72 8.05Q77.35 7.97 76.97 7.97L76.97 7.97Q76.37 7.97 75.88 8.24Q75.38 8.52 74.90 9.31L74.90 9.31L74.90 19.44ZM83.18 19.63L83.18 19.63Q81.48 19.63 80.45 18.56Q79.42 17.50 79.27 15.74L79.27 15.74L81.41 15.10Q81.60 16.42 82.06 17.08Q82.51 17.74 83.40 17.74L83.40 17.74Q84.10 17.74 84.46 17.34Q84.82 16.94 84.82 16.27L84.82 16.27Q84.82 15.67 84.55 15.19Q84.29 14.71 83.69 14.21L83.69 14.21L81.31 12.17Q80.59 11.54 80.10 10.78Q79.61 10.01 79.61 8.78L79.61 8.78Q79.61 7.68 80.05 6.92Q80.50 6.17 81.30 5.77Q82.10 5.38 83.18 5.38L83.18 5.38Q84.84 5.38 85.72 6.44Q86.59 7.51 86.71 9.02L86.71 9.02L84.98 9.67Q84.89 8.95 84.70 8.41Q84.50 7.87 84.17 7.57Q83.83 7.27 83.28 7.27L83.28 7.27Q82.66 7.27 82.28 7.69Q81.91 8.11 81.91 8.69L81.91 8.69Q81.91 9.05 82.07 9.40Q82.22 9.74 82.61 10.08L82.61 10.08L85.06 12.34Q85.56 12.79 86.00 13.32Q86.45 13.85 86.74 14.52Q87.02 15.19 87.02 16.08L87.02 16.08Q87.02 17.26 86.54 18.05Q86.06 18.84 85.20 19.24Q84.34 19.63 83.18 19.63ZM92.78 19.63L92.78 19.63Q91.15 19.63 90.26 19.00Q89.38 18.36 89.03 17.12Q88.68 15.89 88.68 14.09L88.68 14.09L88.68 10.92Q88.68 9.07 89.04 7.85Q89.40 6.62 90.30 6.00Q91.20 5.38 92.78 5.38L92.78 5.38Q94.54 5.38 95.36 6.10Q96.19 6.82 96.46 8.17Q96.72 9.53 96.72 11.42L96.72 11.42L96.72 12.55L91.25 12.55L91.25 15.34Q91.25 16.18 91.40 16.70Q91.56 17.23 91.91 17.48Q92.26 17.74 92.81 17.74L92.81 17.74Q93.38 17.74 93.68 17.46Q93.98 17.18 94.09 16.67Q94.20 16.15 94.20 15.46L94.20 15.46L94.20 14.62L96.70 14.62L96.70 15.14Q96.70 17.23 95.81 18.43Q94.92 19.63 92.78 19.63ZM91.25 10.42L91.25 11.16L94.20 11.16L94.20 9.91Q94.20 9.05 94.10 8.46Q94.01 7.87 93.71 7.57Q93.41 7.27 92.76 7.27L92.76 7.27Q92.14 7.27 91.81 7.56Q91.49 7.85 91.37 8.53Q91.25 9.22 91.25 10.42L91.25 10.42Z" transform="translate(0, 52)"></path></svg>