<?xml version="1.0" standalone="no"?>
<!DOCTYPE svg PUBLIC "-//W3C//DTD SVG 20010904//EN"
 "http://www.w3.org/TR/2001/REC-SVG-20010904/DTD/svg10.dtd">
<svg version="1.0" xmlns="http://www.w3.org/2000/svg"
 width="300.000000pt" height="249.000000pt" viewBox="0 0 300.000000 249.000000"
 preserveAspectRatio="xMidYMid meet">
<g transform="translate(0.000000,249.000000) scale(0.100000,-0.100000)"
fill="#808080" stroke="none">
<path d="M1475 2029 c-46 -19 -67 -45 -72 -90 -5 -41 -2 -48 30 -81 31 -32 40
-36 76 -34 88 7 130 116 67 175 -29 27 -75 41 -101 30z m79 -30 c36 -29 48
-61 35 -98 -28 -80 -136 -81 -168 -2 -11 24 -10 35 4 64 27 57 83 72 129 36z"/>
<path d="M1292 1796 c-95 -98 -93 -111 3 -16 41 41 76 72 77 69 2 -2 12 -14
22 -27 l20 -23 -44 -44 c-39 -39 -50 -45 -86 -45 -24 0 -46 -4 -49 -10 -4 -6
12 -10 42 -10 40 0 54 5 84 33 20 18 44 45 53 58 15 24 15 26 -17 57 l-33 32
-72 -74z"/>
<path d="M1607 1835 c-10 -14 -13 -25 -8 -25 5 0 17 10 25 22 16 22 16 22 91
-52 41 -41 75 -71 75 -66 0 15 -133 146 -149 146 -9 0 -24 -12 -34 -25z"/>
<path d="M1616 1755 c21 -26 49 -51 62 -56 32 -12 95 -12 87 1 -3 6 -24 10
-46 10 -34 0 -46 6 -72 36 -49 55 -75 63 -31 9z"/>
<path d="M929 1644 c-14 -18 -12 -853 2 -870 17 -21 1131 -21 1148 0 8 10 11
131 11 440 -1 411 -2 426 -21 436 -28 16 -1127 9 -1140 -6z m1141 -434 l0
-430 -567 0 -568 0 0 430 0 430 568 0 567 0 0 -430z"/>
<path d="M1060 1207 l0 -302 443 0 442 0 3 303 2 302 -445 0 -445 0 0 -303z
m859 275 c4 -7 7 -135 7 -285 l-1 -272 -422 -3 -423 -2 0 284 c0 260 1 285 17
288 9 2 196 3 415 3 314 0 400 -3 407 -13z"/>
<path d="M1243 1449 c-59 -17 -82 -102 -42 -153 41 -52 97 -54 145 -6 15 15
29 39 31 53 5 37 -21 84 -57 102 -33 17 -32 17 -77 4z m84 -24 c68 -47 32
-155 -52 -155 -32 0 -85 50 -85 80 0 26 18 61 39 77 22 17 72 16 98 -2z"/>
<path d="M1599 1348 c-9 -7 -35 -43 -60 -80 -24 -37 -50 -69 -56 -72 -7 -3
-27 8 -43 24 -29 29 -32 29 -55 14 -14 -9 -25 -20 -25 -24 0 -4 -12 -20 -27
-36 -111 -118 -164 -184 -149 -184 3 0 54 55 113 123 l108 122 34 -37 c18 -21
36 -38 40 -38 3 0 35 43 70 95 36 52 67 95 70 94 3 0 58 -80 122 -177 l115
-177 -325 -3 c-197 -1 -329 -6 -335 -12 -7 -7 103 -10 320 -10 235 0 333 3
341 11 15 15 4 38 -103 199 -92 139 -122 180 -133 180 -4 0 -14 -6 -22 -12z"/>
</g>
</svg>
